<svg width="111" height="48" xmlns="http://www.w3.org/2000/svg"><g fill="currentcolor"><path d="M8.001 11.928a8 8 0 00-8 8L0 40a8 8 0 0016 0v-4.072h-6V40c0 2.21-.895 4-2 4s-2-1.79-2-4l.001-20.072c0-2.21.896-4 2-4 1.105 0 2 1.79 2 4l-.001 8H6v4h10l.001-12a8 8 0 00-8-8zM19 48V0h6l10 36-2-14V0h26v4H40l-1 44h-6L23 12l2 14v22z"/><path d="M50 12a8 8 0 00-8 8v20a8 8 0 004 6.928A8 8 0 0050 48a8 8 0 004-1.072A8 8 0 0058 40V20a8 8 0 00-8-8zm0 4c1.105 0 2 1.79 2 4v20a2 4 0 01-2 4 2 4 0 01-2-4V20c0-2.21.895-4 2-4zM71 48a8 8 0 01-8-8V16h-4v-4h4V9l3 1.107L69 9v3h6v4h-6v24c0 1.501.414 2.81 1.025 3.494.289.322.621.506.975.506h4v4zM84.002 11.964a8 8 0 00-8 8l-.001 20.072a8 8 0 0016 0L92 36h-6l.001 4.036c0 2.21-.895 4-2 4s-2-1.79-2-4l.001-20.072c0-2.21.896-4 2-4 1.105 0 2 1.79 2 4l-.001 8h-4v4h10l.001-12a7.999 7.999 0 00-8-8zM103 12a8 8 0 00-8 8v4c0 2.858 2 6 4 6.928 3.293 1.527 6 1.072 6 5.072v4c0 2.21-.895 4-2 4-1.104 0-2-1.79-2-4v-4h-6v4a8 8 0 0016 .002V36c0-2.858-2-6-4-6.928-3.291-1.527-6-1.072-6-5.072v-4c0-2.21.896-4 2-4 1.105 0 2 1.79 2 4v4h6v-4a8 8 0 00-8-8zM66 2l-6-2v7l6 2 6-2V0zM73 0h38v4H73z"/></g></svg>