<svg width="71.194" height="16" viewBox="0 0 71.194 16" xmlns="http://www.w3.org/2000/svg"><g fill="currentColor"><g><path d="M71.194 0H62.92v1.726h3.131V16h2.035V1.726h3.108zM61.908 0h-2.034v16h2.034zM55.651 0v11.36L51.206 0h-2.263v16h2.034V4.594L55.434 16h2.263V0zM41.885 0l-3.348 16h2.08l.65-3.531h3.842L45.76 16h2.07L44.444 0h-2.56zm1.303 2.035l1.613 8.707h-3.213l1.6-8.707zM37.731 0l-2.777 7.28L32.188 0h-2l3.772 9.406V16h2.023V9.406L39.73 0z" /><path d="M25.028 0H22.4v16h2.628V8.96L28.96 16h2.937L27.28 8l4.56-8h-2.88l-3.932 7.04z" /></g><path d="M9.6 13.716L8 16h3.2zM0 .001h2.72V16H0zM11.198 0L5.6 8l3.6 5.142 1.602-2.286-2-2.857L14.401 0zm2.004 14.286L12 15.999h2.4z" /><path d="M7.198 0L3.28 5.599V10.4l3.918 5.599 1.603-2.287-4-5.713L10.401 0zM15.198 0l-5.6 8 1.604 2.286L12.8 7.999 17.863.77 18.4 0zm.004 11.426l-1.603 2.286L15.198 16H18.4zM18.4 1.143l-8.4 12 1.599 2.286 6.8-9.712z" /></g></svg>